<svg width="20" height="20" viewBox="0 0 20 20" fill="none" xmlns="http://www.w3.org/2000/svg">
<path d="M13.9508 7.07581L11.0854 9.94141L13.9508 12.807C14.256 13.112 14.256 13.6067 13.9508 13.9117C13.7984 14.0643 13.5983 14.1406 13.3984 14.1406C13.1985 14.1406 12.9985 14.0643 12.8461 13.9117L9.98047 11.0463L7.11487 13.9117C6.96243 14.0643 6.76239 14.1406 6.5625 14.1406C6.36261 14.1406 6.16257 14.0643 6.01013 13.9117C5.70496 13.6067 5.70496 13.112 6.01013 12.807L8.87558 9.94141L6.01013 7.07581C5.70496 6.77078 5.70496 6.27609 6.01013 5.97107C6.31516 5.66589 6.80984 5.66589 7.11487 5.97107L9.98047 8.83652L12.8461 5.97107C13.1511 5.66589 13.6458 5.66589 13.9508 5.97107C14.256 6.27609 14.256 6.77078 13.9508 7.07581ZM17.0711 2.92892C15.1823 1.04019 12.6711 0 10 0C7.32895 0 4.81766 1.04019 2.92892 2.92892C1.04019 4.81766 0 7.32895 0 10C0 12.6711 1.04019 15.1823 2.92892 17.0711C4.81766 18.9598 7.32895 20 10 20C11.8286 20 13.6179 19.5016 15.1743 18.5588C15.5434 18.3353 15.6613 17.8549 15.4378 17.486C15.2142 17.1169 14.7337 16.9989 14.3648 17.2224C13.0525 18.0173 11.5431 18.4375 10 18.4375C5.3476 18.4375 1.5625 14.6524 1.5625 10C1.5625 5.3476 5.3476 1.5625 10 1.5625C14.6524 1.5625 18.4375 5.3476 18.4375 10C18.4375 11.6637 17.9428 13.2829 17.0068 14.6831C16.767 15.0417 16.8634 15.5269 17.2221 15.7668C17.5807 16.0065 18.0659 15.9102 18.3058 15.5515C19.4141 13.8936 20 11.9739 20 10C20 7.32895 18.9598 4.81766 17.0711 2.92892Z" fill="#999999"/>
</svg>
