<svg width="25" height="24" viewBox="0 0 25 24" fill="none" xmlns="http://www.w3.org/2000/svg">
<path d="M12.4629 18.7924L19.8259 23.2328L17.8779 14.8583L24.3772 9.22641L15.8096 8.49128L12.4629 0.595703L9.11617 8.49128L0.548584 9.22641L7.04785 14.8583L5.09984 23.2328L12.4629 18.7924Z" fill="white"/>
<path d="M12.7211 18.3643L12.4629 18.2085L12.2047 18.3643L5.85493 22.1936L7.53485 14.9716L7.60316 14.6779L7.37529 14.4804L1.77024 9.62343L9.15891 8.98945L9.45899 8.9637L9.57652 8.68641L12.4629 1.8769L15.3493 8.68641L15.4668 8.9637L15.7669 8.98945L23.1555 9.62343L17.5505 14.4804L17.3226 14.6779L17.3909 14.9716L19.0708 22.1936L12.7211 18.3643Z" stroke="black" stroke-opacity="0.2"/>
</svg>
